<?xml version="1.0" encoding="UTF-8" standalone="no" ?>
<!DOCTYPE svg PUBLIC "-//W3C//DTD SVG 1.1//EN" "http://www.w3.org/Graphics/SVG/1.1/DTD/svg11.dtd">
<svg xmlns="http://www.w3.org/2000/svg" xmlns:xlink="http://www.w3.org/1999/xlink" version="1.1" width="640" height="480" viewBox="0 0 640 480" xml:space="preserve">
<desc>Created with Fabric.js 3.6.6</desc>
<defs>
</defs>
<g transform="matrix(4.94 -2.41 1.37 2.81 347.78 242.51)"  >
<path style="stroke: rgb(0,0,0); stroke-width: 28; stroke-dasharray: none; stroke-linecap: round; stroke-dashoffset: 0; stroke-linejoin: round; stroke-miterlimit: 10; fill: none; fill-rule: nonzero; opacity: 1;"  transform=" translate(-283.5, -249)" d="M 279.028 293.5 Q 279 293.5 278.5 293.5 Q 278 293.5 277.5 293.5 Q 277 293.5 276.5 293.5 Q 276 293.5 275.5 293.5 Q 275 293.5 274.5 293.5 Q 274 293.5 273.5 293.5 Q 273 293.5 272 293.5 Q 271 293.5 270.5 293.5 Q 270 293.5 270.5 293.5 Q 271 293.5 273 293.5 Q 275 293.5 276.5 293.5 Q 278 293.5 280.5 293.5 Q 283 293.5 282 293.5 Q 281 293.5 280.5 293 Q 280 292.5 279.5 291 Q 279 289.5 279 289 Q 279 288.5 279 288 Q 279 287.5 279 287 Q 279 286.5 279 285 Q 279 283.5 279 283 Q 279 282.5 278.5 280.5 Q 278 278.5 277 277.5 Q 276 276.5 275.5 276 Q 275 275.5 274.5 275 Q 274 274.5 273.5 274 Q 273 273.5 273 273 Q 273 272.5 273 272 Q 273 271.5 273 271 Q 273 270.5 272.5 269 Q 272 267.5 271.5 267.5 Q 271 267.5 270 264 Q 269 260.5 267 259.5 Q 265 258.5 264.5 258 Q 264 257.5 263 256.5 Q 262 255.5 261.5 255 Q 261 254.5 261 253.5 Q 261 252.5 261 251 Q 261 249.5 261 249 Q 261 248.5 261 247.5 Q 261 246.5 261 245 Q 261 243.5 261 242.5 Q 261 241.5 261 240.5 Q 261 239.5 261 239 Q 261 238.5 261 237.5 Q 261 236.5 261 236 Q 261 235.5 262 234 Q 263 232.5 264 231.5 Q 265 230.5 265.5 230 Q 266 229.5 266.5 229 Q 267 228.5 267 227 Q 267 225.5 267.5 225 Q 268 224.5 269 223.5 Q 270 222.5 270 222 Q 270 221.5 271 220.5 Q 272 219.5 272.5 219 Q 273 218.5 274.5 216.5 Q 276 214.5 276.5 214 Q 277 213.5 278.5 212 Q 280 210.5 281.5 209 Q 283 207.5 283.5 207 Q 284 206.5 284.5 206 Q 285 205.5 286 205 Q 287 204.5 287.5 204.5 Q 288 204.5 288.5 204.5 Q 289 204.5 289.5 204.5 Q 290 204.5 290.5 204.5 Q 291 204.5 291.5 204.5 Q 292 204.5 292.5 204.5 Q 293 204.5 294 204.5 Q 295 204.5 295.5 204.5 Q 296 204.5 296.5 204.5 Q 297 204.5 297.5 204.5 Q 298 204.5 299 204.5 Q 300 204.5 300.5 204.5 Q 301 204.5 301.5 204.5 Q 302 204.5 302.5 204.5 Q 303 204.5 303.5 204.5 Q 304 204.5 305 206 Q 306 207.5 306 208 Q 306 208.5 306 209 Q 306 209.5 306 210.5 Q 306 211.5 306 213 Q 306 214.5 306 215.5 Q 306 216.5 305 219 Q 304 221.5 304 222 Q 304 222.5 303.5 224.5 Q 303 226.5 303 227 Q 303 227.5 303 228.5 Q 303 229.5 303 230 Q 303 230.5 303 231 Q 303 231.5 303 232 Q 303 232.5 303 233.5 Q 303 234.5 303 235 Q 303 235.5 302.5 237 Q 302 238.5 300 241 Q 298 243.5 297.5 244 Q 297 244.5 296 245.5 Q 295 246.5 294.5 247 Q 294 247.5 293.5 247.5 Q 293 247.5 292.5 247.5 Q 292 247.5 291 247.5 Q 290 247.5 289.5 247.5 Q 289 247.5 288.5 247.5 Q 288 247.5 286 247 Q 284 246.5 283 243.5 Q 282 240.5 282 238 Q 282 235.5 281.5 233 Q 281 230.5 281 228.5 Q 281 226.5 281 224.5 Q 281 222.5 281 221.5 Q 281 220.5 281 220 Q 281 219.5 281.5 218.5 Q 282 217.5 282.5 217 Q 283 216.5 283.5 216.5 Q 284 216.5 284.5 216.5 Q 285 216.5 285.5 216.5 Q 286 216.5 287 216.5 Q 288 216.5 288.5 216.5 Q 289 216.5 289.5 216.5 Q 290 216.5 290.5 216.5 Q 291 216.5 291.5 216.5 Q 292 216.5 292 218 Q 292 219.5 292.5 221.5 Q 293 223.5 293 225 Q 293 226.5 293 227 Q 293 227.5 292 231 Q 291 234.5 290.5 236 Q 290 237.5 289.5 240 Q 289 242.5 288.5 244 Q 288 245.5 288 246 Q 288 246.5 288 247 Q 288 247.5 288 249 Q 288 250.5 288 252 Q 288 253.5 288 254.5 Q 288 255.5 288 256.5 Q 288 257.5 288 259 Q 288 260.5 288 261.5 Q 288 262.5 288 263.5 Q 288 264.5 288 266 Q 288 267.5 288 268 Q 288 268.5 288 269 Q 288 269.5 288 270.5 Q 288 271.5 287.5 272 Q 287 272.5 286.5 273 Q 286 273.5 286 274 L 286 274.528" stroke-linecap="round" />
</g>
<g transform="matrix(15.39 0 0 16.18 319.71 236.06)"  >
<path style="stroke: none; stroke-width: 1; stroke-dasharray: none; stroke-linecap: butt; stroke-dashoffset: 0; stroke-linejoin: miter; stroke-miterlimit: 4; fill: rgb(0,0,0); fill-rule: nonzero; opacity: 1;"  transform=" translate(-14.62, -14.62)" d="M 26.918 0.668 H 2.326 C 1.039 0.668 0 1.707 0 2.992 v 23.259 c 0 1.282 1.039 2.323 2.326 2.323 h 24.592 c 1.281 0 2.324 -1.041 2.324 -2.323 V 2.992 C 29.242 1.707 28.199 0.668 26.918 0.668 z M 14.549 17.318 c 0.41 0.41 0.908 0.617 1.496 0.617 h 4.227 c 0.59 0 1.09 0.211 1.51 0.629 c 0.422 0.418 0.629 0.922 0.629 1.508 s -0.209 1.089 -0.629 1.506 c -0.42 0.42 -0.92 0.631 -1.508 0.631 h -4.227 c -1.76 0 -3.266 -0.627 -4.514 -1.875 c -1.25 -1.25 -1.873 -2.754 -1.873 -4.514 V 7.293 c 0 -0.604 0.207 -1.111 0.623 -1.522 c 0.416 -0.409 0.924 -0.615 1.523 -0.615 c 0.584 0 1.082 0.208 1.5 0.628 c 0.416 0.42 0.623 0.921 0.623 1.508 v 2.136 h 6.334 c 0.592 0 1.094 0.209 1.514 0.629 c 0.426 0.418 0.633 0.919 0.633 1.508 c 0 0.583 -0.209 1.088 -0.629 1.508 c -0.42 0.417 -0.92 0.627 -1.51 0.627 H 13.93 v 2.117 C 13.93 16.406 14.135 16.905 14.549 17.318 z" stroke-linecap="round" />
</g>
<g transform="matrix(0.88 0 0 0.88 320.18 236.27)"  >
<path style="stroke: rgb(233,30,99); stroke-width: 1; stroke-dasharray: none; stroke-linecap: butt; stroke-dashoffset: 0; stroke-linejoin: miter; stroke-miterlimit: 4; fill: rgb(233,30,99); fill-rule: nonzero; opacity: 1;"  transform=" translate(-113, -401)" d="M 329 145 h -432 c -22.1 0 -40 17.9 -40 40 v 432 c 0 22.1 17.9 40 40 40 h 432 c 22.1 0 40 -17.9 40 -40 V 185 C 369 162.9 351.1 145 329 145 z M 169.5 357.6 l -2.9 38.3 h -39.3 v 133 H 77.7 v -133 H 51.2 v -38.3 h 26.5 v -25.7 c 0 -11.3 0.3 -28.8 8.5 -39.7 c 8.7 -11.5 20.6 -19.3 41.1 -19.3 c 33.4 0 47.4 4.8 47.4 4.8 l -6.6 39.2 c 0 0 -11 -3.2 -21.3 -3.2 c -10.3 0 -19.5 3.7 -19.5 14 v 29.9 H 169.5 z" stroke-linecap="round" />
</g>
</svg>